<?xml version="1.0" encoding="UTF-8"?>
<!DOCTYPE svg PUBLIC "-//W3C//DTD SVG 1.1//EN" "http://www.w3.org/Graphics/SVG/1.1/DTD/svg11.dtd">
<!-- Creator: CorelDRAW 2019 (64-Bit Evaluation Version) -->
<svg xmlns="http://www.w3.org/2000/svg" xml:space="preserve" width="120mm" height="120.091mm" version="1.1" style="shape-rendering:geometricPrecision; text-rendering:geometricPrecision; image-rendering:optimizeQuality; fill-rule:evenodd; clip-rule:evenodd"
viewBox="0 0 12000 12009.12"
 xmlns:xlink="http://www.w3.org/1999/xlink">
 <defs>
  <style type="text/css">
   <![CDATA[
    .fil0 {fill:#6B006A}
   ]]>
  </style>
 </defs>
 <g id="Layer_x0020_1">
  <metadata id="CorelCorpID_0Corel-Layer"/>
  <path class="fil0" d="M6059.81 6489.09c34.16,-26.57 79.17,-88.19 109.84,-121.95l93.66 -137.75c139.54,-247.09 143.06,-458.21 2.18,-702.55 -34.53,-59.88 -161.91,-223.86 -205.68,-246.88 -33.32,17.52 -62.6,63.92 -85.01,86.47 -127.05,127.89 -228.17,327.33 -224.31,519.12 3.32,164.91 70.31,294.88 151.24,414.06 34.35,50.58 113.35,154.68 158.08,189.48zm1565.48 -325.82c-0.86,5.8 -1.75,11.59 -2.68,17.37l-1.46 8.94 -0.22 1.35 -1.28 7.58 -0.22 1.24 -1.15 6.58 -0.33 1.84c-1.01,5.69 -2.05,11.36 -3.12,17.03l-1.71 8.86 -0.01 0.09 -1.74 8.75c-1.15,5.7 -2.31,11.39 -3.52,17.07l-0.32 1.49 -1.69 7.82 -0.01 0.04 -1.68 7.62 -0.26 1.16 -1.99 8.75c-3.35,14.57 -6.91,29.07 -10.66,43.49l-2.28 8.64c-1.46,5.5 -2.95,10.99 -4.47,16.47l-0.46 1.65 -1.93 6.88 -0.23 0.81 -1.96 6.85 -0.5 1.71c-1.58,5.44 -3.18,10.88 -4.82,16.29l-0.23 0.78 -0.59 1.96 -2.01 6.54 -2.4 7.72 -0.55 1.75c-5.23,16.6 -10.71,33.07 -16.46,49.43l-0.05 0.14c-1.94,5.54 -3.93,11.06 -5.93,16.57l-3.04 8.3 -0.49 1.33 -2.6 6.94 67.92 57.54c20.7,17.69 91.11,88.24 101.19,111.98 -137.99,-13.63 -271.18,-35.64 -412.44,-45.2 -153.23,-10.36 -293.97,-10.36 -447.2,-10.57 9.29,-33.12 28.99,-69.42 38.47,-109.18 -97.5,26.57 -140.95,66.01 -280.74,44.61 -110.63,-16.93 -159.91,-59.07 -239.92,-90.8 112.77,-6.02 425.41,124 690.71,-12.14 76.25,-39.13 94.05,-61.23 154.88,-114.42l5.15 0.99 3.52 0.72 1.65 0.35 2.7 0.59 2.48 0.56 1.89 0.44 3.31 0.79 1.06 0.26 4.16 1.05 0.23 0.06 4.39 1.16 0.61 0.16 3.79 1.05 1.44 0.41 2.97 0.86 2.28 0.67 0.74 0.22 4.52 1.38 4.67 1.48 0.59 0.19 0.46 0.15 4.43 1.45 0.39 0.13 4.05 1.38 1.22 0.42 3.21 1.13 2.07 0.74 0.23 0.08c3.44,1.23 6.89,2.51 10.33,3.82l0.69 0.26 4.44 1.72 0.15 0.06 4.28 1.69 1 0.4 0.65 0.27 4.61 1.88 0.01 0 2.6 1.08 2.67 1.12 0.15 0.06 5.12 2.19 0.91 0.39 4.34 1.91 0.08 0.03 5.17 2.31 3.64 1.65 1.6 0.74c3.43,1.57 6.84,3.18 10.24,4.81l0.2 0.09 1.13 0.54 4.07 1.97 0.29 0.14 4.36 2.14 0.53 0.26 3.82 1.9 1.35 0.68 2.98 1.51 2.16 1.11 5.13 2.65 1.33 0.69 3.78 1.98 0.51 0.27 4.28 2.27 0.3 0.16 3.95 2.13 1.11 0.6 3.13 1.71 1.9 1.05 2.32 1.28 2.7 1.49 1.51 0.85 3.47 1.95 0.71 0.4 4.16 2.36 0.08 0.05 4.06 2.33 0.87 0.5 3.25 1.89 1.64 0.96 2.46 1.44 2.4 1.41 1.67 1 3.15 1.87 0.9 0.54 3.89 2.34 0.13 0.08 3.99 2.43 0.63 0.38 3.34 2.05 1.38 0.84 2.56 1.59 2.11 1.3 1.81 1.13 2.82 1.77 1.06 0.67 3.53 2.23 0.32 0.2 3.82 2.44 3.79 2.43 1.12 0.71 2.64 1.71 1.81 1.18 1.91 1.25 2.5 1.63 1.19 0.78 3.17 2.09 0.49 0.32 3.62 2.41 0.2 0.13 3.38 2.26 5.48 -15.38 2.68 -7.72c19.48,-56.6 35.77,-114.7 48.63,-174.1l0.1 -0.49c2.31,-10.69 4.51,-21.42 6.6,-32.2l0.06 -0.29 1.53 -8.03 1.46 -7.82 0.06 -0.37 1.48 -8.22 0.4 -2.26 1.03 -5.96 0.84 -4.93 0.55 -3.32 1.24 -7.59 0.1 -0.67 1.3 -8.27c1.28,-8.28 2.49,-16.58 3.64,-24.91l1.13 -8.33 0.23 -1.72 0.85 -6.62 0.17 -1.36 0.68 -5.44 0.19 -1.56 0.85 -7.13 0.14 -1.25 0.94 -8.38 0.62 -5.72 0.29 -2.68 0.43 -4.16 0.42 -4.26 0.67 -6.88 0.14 -1.55 0.77 -8.44 0.55 -6.48 0.17 -1.97 0.32 -3.9 0.12 -1.57 0.59 -7.74 0.14 -1.89 0.13 -1.85 0.59 -8.49 0.06 -0.88 0.12 -1.96 0.54 -8.82 0.07 -1.19 0.4 -7.22 0.28 -5.49 0.4 -8.54 0.03 -0.59 0.32 -7.97 0.13 -3.35 0.18 -5.22 0.19 -6.11 0.07 -2.47 0.21 -8.59 0.01 -0.29 0.03 -1.95c0.13,-6.66 0.23,-13.34 0.29,-20.04l0.01 -1.34 0.04 -10.86c0,-646.73 -397.78,-1199.67 -959.85,-1423.15l0 -73.88c600.63,226.95 1028.26,811.54 1028.26,1497.03l-0.03 9.36 -0.01 2 -0.07 7.34 -0.05 4.01 -0.08 5.32 -0.11 6.01 -0.03 1.11c-0.15,6.94 -0.33,13.88 -0.57,20.8l-0.03 0.68 -0.32 8.6 -0.11 2.67 -0.05 1.04 -0.39 8.75 -0.06 1.45 -0.23 4.61 -0.35 6.62 -0.15 2.61 -0.51 8.6 -0.04 0.63 -0.61 9.21 -0.09 1.34 -0.56 7.85 -0.25 3.32 -0.46 5.86 -0.09 1.04 -0.52 6.42 -0.14 1.71 -0.64 7.23 -0.17 1.92 -0.86 9.13 0 0.05 -0.91 9.07 -0.21 2 -0.75 7.11 -0.43 3.95 -0.58 5.14 -0.23 1.99 -0.84 7.09 -0.95 7.82 -0.16 1.24 -1.16 9.04 -0.09 0.7 -1.12 8.33 -0.36 2.64 -0.9 6.37 -0.66 4.56 -0.66 4.43 -0.09 0.58zm-3080.2 -227.15c0.05,6.69 0.16,13.37 0.29,20.04l0.03 1.95 0.01 0.29 0.21 8.59 0.07 2.47 0.19 6.11 0.18 5.22 0.13 3.35 0.32 7.97 0.03 0.58 0.4 8.54 0.29 5.65 0.15 2.88 0.28 4.91 0.04 0.62 0.51 8.37 0.14 2.26 0.06 0.87c0.44,6.61 0.92,13.21 1.44,19.8l0.13 1.75 0.32 3.89 0.13 1.57 0.59 6.88 0.76 8.44 0.15 1.56 0.94 9.63 0.15 1.51 0.43 4.14 0.74 6.97 0.16 1.43 0.95 8.39 0.14 1.26 0.85 7.11 0.48 3.96 0.22 1.75 1.19 9.29 0.22 1.71 1.13 8.33 0.13 0.97 1.04 7.34 0.08 0.52 0.87 5.98 0.26 1.81 0.95 6.3 0.31 1.98 1.3 8.28 0.11 0.68 0.04 0.27 1.65 10.02 0.25 1.47 1.7 9.9 0.03 0.21 1.86 10.39 0.07 0.39 1.45 7.81 0.57 3.03 0.99 5.15 0.35 1.75 1.26 6.41 1.64 8.16 0.02 0.11 1.67 8.02 0.58 2.73 1.16 5.39 1.16 5.33 0.61 2.77 1.78 7.93 0.04 0.16 1.86 8.07 0.57 2.43 1.34 5.62 0.15 0.63 1.64 6.79 0.49 1.98c2.52,10.25 5.14,20.45 7.86,30.62l1.95 7.25 0.2 0.71 2.2 7.93 1.81 6.44 0.64 2.23 2.06 7.15 2.02 6.92 0.29 0.97 2.36 7.86 0.47 1.57 1.93 6.28 0.31 1 1.86 5.96 0.27 0.87 2.08 6.58 0.4 1.23 2.52 7.79 5.12 15.42 0.04 0.11 2.13 6.26 0.51 1.48 2.68 7.72 0.35 1.01 2.37 6.69 1.24 3.48 1.52 4.2 3.03 -2.1 0.15 -0.1 3.24 -2.21 0.08 -0.06 3.22 -2.18 0.31 -0.21 3.06 -2.05 0.54 -0.36 2.88 -1.91 0.8 -0.53 2.69 -1.76 1.04 -0.69 2.5 -1.62 1.31 -0.85 2.28 -1.47 1.58 -1.01 2.07 -1.32 1.86 -1.17 1.84 -1.17 2.14 -1.34 1.62 -1.01 2.42 -1.51 1.38 -0.85 2.72 -1.67 1.13 -0.69 3.02 -1.84 0.87 -0.53 3.33 -2.01 0.61 -0.36 3.64 -2.17 0.34 -0.21 3.96 -2.33 0.07 -0.04 4.06 -2.38 0.21 -0.12 3.9 -2.25 0.49 -0.28 3.65 -2.09 0.78 -0.45 3.39 -1.91 1.08 -0.61 3.13 -1.75 1.38 -0.77 2.86 -1.58 1.68 -0.92 2.6 -1.42 1.98 -1.08 2.32 -1.25 2.29 -1.23 2.04 -1.09 2.61 -1.38 1.74 -0.92 0.67 -0.35 3.72 -1.94 3.24 -1.68 1.16 -0.6 1.09 -0.55 3.34 -1.7 3.88 -1.96 0.56 -0.28 4.21 -2.09 0.26 -0.13 4.48 -2.19 0.05 -0.02 4.45 -2.15 0.36 -0.17 4.16 -1.98 0.66 -0.31 3.86 -1.81 0.98 -0.45 3.56 -1.64 1.29 -0.59 0.44 -0.2 4.43 -2 2.94 -1.31 1.93 -0.85 2.63 -1.15 2.24 -0.97 2.33 -1 2.56 -1.09 2.01 -0.84 2.87 -1.2 1.7 -0.7 3.19 -1.3 1.38 -0.56 3.5 -1.4 1.08 -0.42 3.81 -1.49 0.76 -0.3 4.12 -1.57 0.44 -0.17 4.43 -1.64 0.13 -0.05 4.55 -1.66 0.19 -0.06 4.36 -1.54 0.49 -0.17 4.04 -1.39 0.8 -0.27 3.73 -1.24 1.11 -0.37 1.42 -0.45 3.35 -1.08 0.04 -0.01 3.08 -0.96 1.72 -0.53 2.76 -0.83 0.56 -0.16 3.4 -1 0.5 -0.14 2.32 -0.66 2.13 -0.59 2.6 -0.71 1.82 -0.48 2.89 -0.75 1.51 -0.38 3.18 -0.78 1.19 -0.29 3.46 -0.81 0.89 -0.2 3.74 -0.82 0.59 -0.13 4 -0.82 0.29 -0.06 4.27 -0.82c13.95,12.37 26.24,23.14 39.08,35.96l40.77 33.5c157.29,124.2 381.6,116.95 571.98,86.81 41.28,-6.54 160.55,-32.05 193.49,-29.46 -9.51,3.03 -39.38,19.78 -52.41,26.09 -19.31,9.35 -37.54,17.13 -57.18,25.54 -89.1,38.16 -182.28,56.09 -279.93,36.23 -50.88,-10.34 -85.42,-29.43 -130.87,-41.91 9.45,39.74 29.24,76.08 38.46,109.19 -197,-2.97 -298.7,0.23 -501.91,14.87 -121.47,8.76 -238.64,29.03 -357.74,40.91 14.8,-34.71 116.24,-128.58 155.31,-157.34l14.21 -11.09 -3.01 -8.04 -0.09 -0.25 -3.06 -8.31 -0.55 -1.51 -2.46 -6.82 -1.18 -3.29 -1.79 -5.06 -0.66 -1.9 -1.94 -5.56 -0.32 -0.91 -2.36 -6.87 -0.52 -1.53 -2.83 -8.42 -0.09 -0.25 -2.7 -8.18 -0.67 -2.05 -2.07 -6.41 -1.23 -3.85 -0.37 -1.18 -2.32 -7.37 -0.55 -1.74 -0.88 -2.84 -2.29 -7.48 -0.31 -1.04 -2.56 -8.54 -0.24 -0.78 -2.28 -7.78 -0.75 -2.6 -0.19 -0.66 -2.35 -8.25 -0.43 -1.49 -1.17 -4.18 -1.73 -6.26 -0.64 -2.35 -2.19 -8.12 -0.14 -0.52 -2.28 -8.66 -1.52 -5.89 -0.72 -2.79 -0.8 -3.16 -0.33 -1.33 -1.78 -7.15 -0.52 -2.07 -0.9 -3.7 -1.65 -6.88 -0.44 -1.85 -2.05 -8.75 -1.99 -8.77 -0.42 -1.87 -0.26 -1.2 -1.93 -8.75 -0.16 -0.71 -1.09 -5.07 -0.43 -2.05 -1.36 -6.5 -0.06 -0.27 -1.54 -7.51 -0.27 -1.34 -1.76 -8.86 -0.1 -0.53 -1.61 -8.34 -0.46 -2.43 -1.2 -6.47 -0.79 -4.32 -0.82 -4.59 -0.35 -2 -1.15 -6.59 -0.06 -0.34 -1.38 -8.14 -0.14 -0.81 -1.46 -8.96 -0.18 -1.09 -1.24 -7.89 -0.46 -3 -0.17 -1.13 -1.28 -8.59 -0.18 -1.2 -0.59 -4.09 -0.97 -6.84 -0.3 -2.19 -1.18 -8.78 -0.04 -0.27 -1.16 -9.06 -0.21 -1.65 -0.91 -7.43 -0.13 -1.12 -0.9 -7.73 -0.06 -0.49 -0.84 -7.54 -0.15 -1.32 -0.79 -7.47 -0.17 -1.66 -0.92 -9.14 -0.03 -0.27 -0.83 -8.88 -0.2 -2.22 -0.61 -6.95 -0.07 -0.84 -0.6 -7.22 -0.09 -1.12 -0.48 -6.13 -0.23 -3.07 -0.58 -8.1 -0.08 -1.12 -0.61 -9.22 -0.05 -0.84 -0.5 -8.41 -0.16 -2.8 -0.34 -6.45 -0.24 -4.78 -0.09 -1.96c-0.32,-6.73 -0.6,-13.48 -0.83,-20.23l-0.01 -0.32 -0.02 -0.56 -0.29 -9.32 -0.04 -1.41 -0.2 -7.91 -0.02 -0.9 -0.11 -5.58 -0.11 -6.43 -0.03 -1.81 -0.05 -3.97 -0.07 -7.38 -0.01 -1.98 -0.03 -9.38c0,-685.49 427.63,-1270.08 1028.26,-1497.03l0 73.88c-562.07,223.48 -959.85,776.42 -959.85,1423.15l0.04 10.86 0.01 1.34zm3080.2 227.15c-0.87,5.8 -1.75,11.59 -2.68,17.37zm-4.66 27.53c-1.01,5.68 -2.05,11.37 -3.12,17.03zm-62.53 232.76c-1.94,5.54 -3.93,11.06 -5.93,16.57zm-1431.79 0.54c75.96,-13.48 322.64,-98.05 401.57,-129.14 124.26,-48.96 257.31,-111.74 351.05,-182.13 51.65,-38.78 100.75,-72.47 144.24,-120.38 34.12,-37.58 90.47,-112.71 112.73,-156.1 71.59,-139.5 94.89,-273.03 75.7,-452.01 -105.12,5.13 -310.66,98.17 -385.81,141.9 -87.04,50.66 -154.69,105.47 -228.14,168.84 -24.06,20.76 -47.57,43.76 -68.83,67.43l-90.76 107.81c-63.55,75.32 -23.34,25.89 -58.55,139.92 -10.68,34.59 -22.61,68.3 -37.4,98.97 -29.52,61.18 -61.51,119.99 -97.5,166.99 -9.75,12.74 -17.22,23.44 -27.83,38.34l-90.47 109.56zm-109.56 0l-116.53 -145.54c-141.6,-188.99 -146.15,-337.35 -161.28,-367.75l-59.77 -72.45c-6.57,-7.48 -8.4,-11.54 -14.43,-18.9 -6.26,-7.64 -9.52,-9.12 -16.35,-16.48 -41.95,-45.1 -37.23,-48.94 -98.63,-103.98 -65.99,-59.16 -156,-126.85 -229.82,-171.25 -73.17,-44.01 -284.85,-138.36 -388.45,-143.4 -21.29,197.55 14.09,384.74 125.66,530.11 8.84,11.52 18.58,26.67 28.14,38.16 10.99,13.2 20.35,23.6 30.73,35.45l104.7 93.66c14.68,12 26.09,18.3 41.08,29.32 148.96,109.56 363.78,194.13 549.16,252.72 58.01,18.34 148.41,50.65 205.79,60.33zm54.79 655.2c23.96,-14.51 122.24,-128.71 145.5,-165.2 45.1,-70.77 76.93,-109.5 104.13,-202.01 28.06,-95.39 19.34,-177.41 -34.04,-245.77 -45.24,-57.95 -50.93,-43.9 -94.44,-31.28 -139.45,40.44 -101.65,41.99 -245.53,-0.97 -40.69,-12.15 -49.52,-24.1 -92.74,34.92 -53.01,72.4 -60.98,143.62 -32.48,243.51 21.18,74.25 66.7,153.63 105.8,204 34.77,44.79 98.82,135.56 143.8,162.8zm-331.71 -707.9c-21.88,-13.47 -106.54,-39.09 -137.5,-51.33 -139.43,-55.11 -258.56,-114.73 -375,-199.44 -11.62,-8.46 -17.73,-11.15 -26.91,-18.65l-76.76 -67.88c-69.99,-65.22 9.06,-15.78 -141.54,-52.63 -149.3,-36.53 -216.42,-103.54 -261.09,-122.14 35.34,123.01 110.23,266.53 190.93,361.56 46.81,55.13 18.02,26.49 78.32,78.96 155.54,135.38 371.64,134.35 573.91,101.89 45.31,-7.27 138.8,-18.07 175.64,-30.34zm664.49 1.89c273.07,37.73 525.14,111.02 745.68,-72.04 22.06,-18.32 35.5,-26.58 55.25,-48.17 33.12,-36.21 59.54,-75.89 86.99,-115.76 44.62,-64.8 105.99,-193.69 129.76,-277.96 -44.93,18.83 -107.44,82.91 -257.73,121.29 -24.43,6.23 -53.42,11.47 -80.02,14.58 -48.64,5.69 -33.52,8.2 -61.16,34.24 -174.37,164.36 -358.71,246.04 -582.08,327.28 -13.7,4.98 -25.95,7.76 -36.69,16.54zm-1011.06 -830.89c24.31,10.59 113.18,83.01 141.4,105.66l199.56 212.78c9.94,-83.79 -8.06,-119 31.81,-236.67 11.7,-34.5 23.82,-62.91 38.73,-93.77 22.04,-45.65 28.43,-29.14 -8.9,-89.91 -24.14,-39.29 -85.98,-120.25 -120.92,-147.75 -40.71,-32.06 -104.68,-85.33 -169.72,-104.39 -43.84,59.79 -103.67,266.62 -111.96,354.05zm1015.4 318.44c14.43,-26.11 165.51,-183.38 197.48,-210.94l92.37 -73.11c16.02,-10.78 34.45,-27.1 51.31,-34.36 -8.2,-86.36 -68.28,-294.51 -111.96,-354.08 -61.2,17.93 -117.3,63.82 -167.37,102.57 -30.47,23.58 -39.77,40.08 -64.17,68.15 -21.84,25.12 -40.26,50.5 -57.54,78.87 -50.9,83.59 -24.17,30.72 26.51,183.51 42.16,127.09 23.06,140.41 33.37,239.39zm446.6 631.71c-17.46,1.47 -51.65,15.18 -72.83,19.78 -141.99,30.84 -252.56,-9.33 -376.91,-69.52 -67.31,-32.58 -86.82,-56.36 -129.46,-29.67 14.51,25.44 62.76,52.21 81.4,135.38 16.37,72.98 2.87,116.62 -12.05,182.34 220.08,83.14 437.58,-22.68 509.85,-238.31zm-1057.05 238.71c-14.99,-88.94 -44.2,-156.67 19.96,-261.56 17.33,-28.31 31.44,-36.69 49.24,-57.05 -39.3,-27.51 -73.07,2.61 -129.86,30.15 -41.66,20.2 -83.44,39.18 -130.95,55.04 -177.09,59.14 -269.12,-1.07 -318.82,-5.34 31.44,92.43 94.84,178.25 181.01,221.72 105.74,53.35 211,60.63 329.42,17.04zm248.66 -2750l-194.05 332.7 -132.19 -332.7 326.24 0zm-3103.02 3973.61l-86.35 -0.99 -16.87 0c-26.47,0 -57.24,0.33 -92.31,0.99l0 -0.99c17.21,-2.65 30.6,-11.41 40.2,-26.3 9.59,-14.89 14.39,-35.57 14.39,-62.03l-0.99 -180.64c0,-13.9 -1.66,-23.16 -4.96,-27.79 -3.31,-4.63 -10.92,-6.95 -22.83,-6.95l-342.42 0c-14.55,0 -23.49,1.82 -26.8,5.46 -3.3,3.64 -4.96,12.74 -4.96,27.29l0.99 182.63c0,26.46 4.8,47.14 14.4,62.03 9.59,14.89 22.99,23.65 40.19,26.3l0 0.99 -86.35 -0.99 -16.87 0c-26.47,0 -57.23,0.33 -92.3,0.99l0 -0.99c17.2,-2.65 30.6,-11.41 40.19,-26.3 9.6,-14.89 14.4,-35.57 14.4,-62.03l0 -449.61 -1 0 0 -0.99c0,-26.47 -4.79,-47.15 -14.39,-62.04 -9.59,-14.88 -22.99,-23.65 -40.19,-26.3l0 -0.99 197.51 0 0 0.99c-17.21,2.65 -30.61,12.41 -40.2,29.28 -9.6,16.87 -15.05,45.16 -16.38,84.86l0 126.05c0,22.5 10.92,33.75 32.75,33.75l337.46 0c13.23,0 21.5,-1.33 24.81,-3.97 4.63,-4.64 6.95,-15.22 6.95,-31.76l0.99 -149.87 -0.99 0 0 -1c0,-26.46 -4.8,-47.14 -14.39,-62.03 -9.6,-14.89 -23,-23.65 -40.2,-26.3l0 -0.99 197.51 0 0 0.99c-17.2,2.65 -30.6,12.41 -40.2,29.28 -9.59,16.87 -15.05,45.16 -16.37,84.86l0 284.85 0.99 140.94c0,26.46 4.8,47.14 14.39,62.03 9.59,14.89 22.99,23.65 40.2,26.3l0 0.99zm237.21 -540.92c-9.93,1.33 -18.2,4.64 -24.82,9.93 -6.61,5.29 -12.57,12.24 -17.86,20.84l0 284.85c0,10.59 2.64,19.52 7.94,26.8 8.6,11.25 19.85,18.86 33.74,22.83l1 0.99c-1.33,1.32 -5.96,1.98 -13.9,1.98 -48.96,-1.98 -86.68,-1.98 -113.14,0 -5.96,0 -9.93,-0.99 -11.92,-2.97 13.24,-0.66 24.16,-5.13 32.76,-13.4 8.6,-8.27 13.56,-18.03 14.89,-29.28l0 -274.93c0,-6.61 -1.66,-13.23 -4.97,-19.85 -3.31,-7.27 -7.44,-13.73 -12.4,-19.35 -4.97,-5.62 -10.43,-8.44 -16.38,-8.44 1.99,-0.66 23.16,-0.99 63.52,-0.99 40.36,0 60.87,0.33 61.54,0.99zm54.58 366.24c17.21,-3.31 27.13,-16.54 29.78,-39.7l0 -2.98c0.66,-0.66 0.99,-3.31 0.99,-7.94l0 -260.04c0,-29.77 -10.59,-46.64 -31.76,-50.61l141.93 -1.99c30.44,0.66 55.25,7.28 74.44,19.85 22.5,14.56 33.74,36.06 33.74,64.51 0,37.72 -23.82,69.81 -71.46,96.28 -5.29,1.32 -8.6,2.98 -9.92,4.96 73.44,107.19 144.57,165.42 213.39,174.68l19.85 2.98 -91.31 0.99c-37.06,0 -69.48,-16.21 -97.27,-48.63 -39.7,-50.29 -71.79,-90.32 -96.27,-120.09 -16.54,0 -29.12,0.99 -37.72,2.97l0.99 114.14c0,29.78 10.59,46.65 31.76,50.62l-111.16 0zm192.55 -274.93c0,-24.48 -6.29,-42.01 -18.86,-52.6 -13.23,-11.25 -33.08,-16.87 -59.55,-16.87 -21.83,0 -33.08,3.31 -33.74,9.92l0 5.96 -1.99 137.96 22.83 0c31.76,0 54.92,-8.11 69.48,-24.32 14.55,-16.21 21.83,-36.23 21.83,-60.05zm343.41 96.28l0 125.05c0,10.59 2.64,19.52 7.94,26.8 8.6,11.91 19.85,19.19 33.74,21.84l1 0.99c-1.33,2.65 -5.96,3.31 -13.9,1.98 -48.96,-0.66 -86.68,-0.66 -113.15,0 -5.95,1.33 -9.92,0.34 -11.91,-2.97 13.24,-0.66 24.16,-5.13 32.76,-13.4 8.6,-8.27 13.56,-17.7 14.89,-28.29 -1.33,-186.59 -3.31,-282.86 -5.96,-288.82 -3.31,-7.28 -7.44,-13.73 -12.41,-19.35 -4.96,-5.63 -10.42,-8.44 -16.37,-8.44 1.98,-0.66 23.16,-0.99 63.52,-0.99 40.36,0 60.87,0.33 61.53,0.99 -9.92,1.32 -18.19,4.63 -24.81,9.93 -6.62,5.29 -12.57,12.24 -17.86,20.84l0.99 135.97c25.8,-21.83 50.78,-42.84 74.93,-63.02 24.15,-20.18 47.48,-39.87 69.97,-59.06 8.61,-7.94 14.07,-14.39 16.38,-19.35 2.32,-4.96 2.48,-9.26 0.5,-12.9 -1.99,-3.64 -5.96,-6.62 -11.91,-8.94 -5.96,-2.31 -12.91,-4.46 -20.85,-6.45l27.79 1.99 88.34 -1.99 -64.52 47.64 1 0c-3.31,2.65 -7.61,5.96 -12.91,9.93 -5.29,3.97 -11.57,8.6 -18.85,13.89 -13.24,11.25 -50.95,43.01 -113.15,95.29 13.9,13.23 32.92,32.75 57.07,58.55 24.15,25.81 53.43,57.9 87.84,96.28 9.92,13.23 20.51,23.32 31.76,30.27 11.25,6.95 21.5,11.08 30.77,12.4l-82.38 -0.99 -161.78 -175.67zm354.32 178.65l-68.48 0 0 -0.99c8.6,-1.33 15.38,-5.46 20.35,-12.41 4.96,-6.95 10.09,-14.06 15.38,-21.34 5.96,-7.28 18.86,-32.42 38.71,-75.43 10.59,-22.5 19.68,-42.18 27.29,-59.05 7.61,-16.88 14.06,-31.6 19.36,-44.17 27.79,-67.49 51.61,-128.03 71.46,-181.63 25.14,60.21 50.12,118.94 74.93,176.17 24.81,57.24 49.79,113.31 74.94,168.23 5.95,15.22 13.23,26.97 21.83,35.24 8.6,8.27 17.87,13.06 27.79,14.39l0 1.98 -87.34 0c-8.6,-21.17 -16.04,-40.03 -22.33,-56.57 -6.29,-16.54 -11.75,-30.77 -16.38,-42.68l-161.78 0 -35.73 98.26zm186.6 -124.06c-0.67,-1.33 -6.79,-16.05 -18.37,-44.17 -11.58,-28.12 -28.94,-69.97 -52.1,-125.55l-71.46 173.69 143.91 0 -1.98 -3.97zm401.96 124.06c-13.89,-21.84 -64.51,-100.24 -151.85,-235.23l0.99 142.93 0 42.67c0,30.44 9.92,47.31 29.78,50.62l-94.29 0 0 -0.99c21.17,-3.31 31.76,-19.85 31.76,-49.63l0 -49.62 1.98 -208.43c0,-12.57 0,-23.32 0,-32.25 0,-8.94 -0.33,-16.38 -0.99,-22.34l0.99 0 197.51 283.86c12.57,-17.2 35.57,-49.29 68.98,-96.27 33.41,-46.98 77.91,-108.52 133.49,-184.61l0 308.67c0,29.78 10.26,46.32 30.77,49.63l0 0.99 -48.63 -0.99 -9.93 0c-7.28,0 -15.38,0 -24.31,0 -8.94,0 -18.37,0.33 -28.29,0.99 21.17,-3.97 31.76,-20.84 31.76,-50.62l-2.98 -192.54 -166.74 243.16zm367.23 0l-68.48 0 0 -0.99c8.6,-1.33 15.38,-5.46 20.34,-12.41 4.97,-6.95 10.09,-14.06 15.39,-21.34 5.95,-7.28 18.85,-32.42 38.7,-75.43 10.59,-22.5 19.69,-42.18 27.3,-59.05 7.61,-16.88 14.06,-31.6 19.35,-44.17 27.79,-67.49 51.61,-128.03 71.46,-181.63 25.15,60.21 50.12,118.94 74.94,176.17 24.81,57.24 49.79,113.31 74.93,168.23 5.96,15.22 13.23,26.97 21.84,35.24 8.6,8.27 17.86,13.06 27.79,14.39l0 1.98 -87.34 0c-8.61,-21.17 -16.05,-40.03 -22.34,-56.57 -6.28,-16.54 -11.74,-30.77 -16.37,-42.68l-161.78 0 -35.73 98.26zm186.59 -124.06c-0.66,-1.33 -6.78,-16.05 -18.36,-44.17 -11.58,-28.12 -28.95,-69.97 -52.11,-125.55l-71.46 173.69 143.92 0 -1.99 -3.97zm262.02 62.52c0,17.21 9.93,27.79 29.78,31.76 3.31,0.67 20.51,1 51.61,1 12.57,0 24.48,-1 35.73,-2.98 23.16,-6.62 40.03,-13.73 50.62,-21.34 10.58,-7.61 17.53,-16.38 20.84,-26.3l-10.92 73.44 -0.99 2.98 -15.88 0c-29.11,-1.98 -65.84,-2.98 -110.17,-2.98 -16.54,0 -35.56,0 -57.07,0 -21.5,0 -46.15,0.34 -73.94,1 21.17,-3.31 31.76,-20.18 31.76,-50.62l0 -260.04 -0.99 0c0,-30.44 -10.59,-47.31 -31.76,-50.62l0 -0.99 113.14 0 0 0.99c-9.92,1.99 -17.53,7.78 -22.82,17.37 -5.3,9.6 -8.28,25.64 -8.94,48.14l0 239.19zm1164.21 54.59c2.65,1.99 3.97,17.87 3.97,47.64 0,29.78 -1.65,56.91 -4.96,81.39 -0.66,1.98 -1.65,4.3 -2.98,6.95l-4.96 4.96c-9.92,9.26 -28.78,18.86 -56.57,28.78 -46.32,16.54 -103.88,24.81 -172.7,24.81 -96.6,0 -178.98,-31.43 -247.13,-94.28 -69.48,-62.86 -104.88,-141.93 -106.2,-237.21l0 -1c1.32,-94.62 36.72,-173.69 106.2,-237.21 68.15,-62.86 150.53,-94.28 247.13,-94.28 68.82,0 126.38,8.27 172.7,24.81 27.79,9.92 46.65,19.52 56.57,28.78l4.96 4.96c1.33,2.65 2.32,4.97 2.98,6.95 3.31,24.48 4.96,51.61 4.96,81.39 0,29.77 -1.32,45.65 -3.97,47.64l-1.98 0c-1.32,-7.94 -4.63,-17.54 -9.93,-28.79 -5.29,-11.24 -13.39,-22.82 -24.31,-34.73 -10.92,-11.91 -24.65,-23.99 -41.19,-36.23 -16.54,-12.24 -36.72,-23.65 -60.54,-34.24 -26.47,-11.91 -60.88,-17.87 -103.22,-17.87 -71.47,0 -130.02,23.82 -175.68,71.46 -48.96,51.61 -73.44,122.41 -73.44,212.4l0 4.96 0 1 0 4.96c0,89.99 24.48,160.79 73.44,212.4 45.66,47.64 104.21,71.46 175.68,71.46 42.34,0 76.75,-5.96 103.22,-17.87 23.82,-10.59 44,-22 60.54,-34.24 16.54,-12.24 30.27,-24.32 41.19,-36.23 10.92,-11.91 19.02,-23.49 24.31,-34.73 5.3,-11.25 8.61,-20.85 9.93,-28.79l1.98 0zm127.05 6.95c17.2,-3.31 27.12,-16.54 29.77,-39.7l0 -2.98c0.66,-0.66 0.99,-3.31 0.99,-7.94l0 -260.04c0,-29.77 -10.58,-46.64 -31.76,-50.61l141.93 -1.99c30.44,0.66 55.25,7.28 74.44,19.85 22.5,14.56 33.75,36.06 33.75,64.51 0,37.72 -23.82,69.81 -71.46,96.28 -5.3,1.32 -8.61,2.98 -9.93,4.96 73.45,107.19 144.58,165.42 213.39,174.68l19.85 2.98 -91.31 0.99c-37.05,0 -69.48,-16.21 -97.27,-48.63 -39.7,-50.29 -71.79,-90.32 -96.27,-120.09 -16.54,0 -29.11,0.99 -37.72,2.97l1 114.14c0,29.78 10.58,46.65 31.76,50.62l-111.16 0zm192.54 -274.93c0,-24.48 -6.28,-42.01 -18.86,-52.6 -13.23,-11.25 -33.08,-16.87 -59.55,-16.87 -21.83,0 -33.08,3.31 -33.74,9.92l0 5.96 -1.99 137.96 22.83 0c31.76,0 54.92,-8.11 69.48,-24.32 14.55,-16.21 21.83,-36.23 21.83,-60.05zm501.22 277.91c-1.99,0.66 -5.96,0.99 -11.91,0.99 -29.11,-1.99 -65.84,-2.98 -110.17,-2.98 -16.54,0 -35.56,0 -57.07,0 -21.5,0 -46.15,0.33 -73.94,0.99 21.17,-3.3 31.76,-20.18 31.76,-50.61l0 -259.05c0,-30.44 -10.59,-47.31 -31.76,-50.62l0 -0.99 103.22 0c14.56,0 28.29,-0.16 41.19,-0.5 12.9,-0.33 25.31,-0.82 37.22,-1.48l3.97 0c8.6,0 16.71,-0.17 24.31,-0.5 7.61,-0.33 15.06,-0.83 22.34,-1.49 11.91,-0.66 17.86,0.33 17.86,2.98l0 57.56c-1.32,-10.58 -8.1,-18.19 -20.34,-22.82 -12.25,-4.64 -35.9,-8.27 -70.97,-10.92 -7.94,-0.66 -17.37,-0.99 -28.29,-0.99 -10.91,0 -23.32,0 -37.21,0 -5.96,0 -9.93,0.99 -11.92,2.97 -0.66,0.67 -0.99,3.64 -0.99,8.94l0 116.12c0,3.97 2.65,5.96 7.94,5.96 4.63,0 15.72,0 33.25,0 17.54,0 41.85,0.33 72.95,0.99 15.22,0 26.3,-3.48 33.25,-10.42 6.95,-6.95 11.08,-15.06 12.41,-24.32l0.99 0c-0.66,14.56 -0.66,44.99 0,91.31 -3.97,-21.17 -20.84,-31.76 -50.62,-31.76 -11.91,-0.66 -26.63,-1.16 -44.17,-1.49 -17.53,-0.33 -37.88,-0.49 -61.04,-0.49 -3.3,0 -4.96,1.32 -4.96,3.97l0 121.08c0,17.21 9.93,27.79 29.78,31.76 3.31,0.66 20.51,0.99 51.61,0.99 13.89,0 25.8,-1.32 35.73,-3.97 23.16,-5.95 40.03,-12.9 50.62,-20.84 10.58,-7.94 17.53,-16.54 20.84,-25.8l-10.92 72.45 -0.99 3.97 -3.97 -0.99zm137.96 -2.98l-68.49 0 0 -0.99c8.61,-1.33 15.39,-5.46 20.35,-12.41 4.96,-6.95 10.09,-14.06 15.39,-21.34 5.95,-7.28 18.85,-32.42 38.7,-75.43 10.59,-22.5 19.69,-42.18 27.3,-59.05 7.61,-16.88 14.06,-31.6 19.35,-44.17 27.79,-67.49 51.61,-128.03 71.46,-181.63 25.15,60.21 50.12,118.94 74.94,176.17 24.81,57.24 49.79,113.31 74.93,168.23 5.96,15.22 13.23,26.97 21.84,35.24 8.6,8.27 17.86,13.06 27.79,14.39l0 1.98 -87.35 0c-8.6,-21.17 -16.04,-40.03 -22.33,-56.57 -6.28,-16.54 -11.74,-30.77 -16.37,-42.68l-161.78 0 -35.73 98.26zm186.59 -124.06c-0.66,-1.33 -6.78,-16.05 -18.36,-44.17 -11.58,-28.12 -28.95,-69.97 -52.11,-125.55l-71.46 173.69 143.91 0 -1.98 -3.97zm533.97 -241.18c-0.66,17.86 -0.99,34.24 -0.99,49.13 0,14.88 0,28.61 0,41.18l-2.98 0c-17.2,-25.14 -31.43,-42.01 -42.68,-50.61 -14.56,-10.59 -40.03,-15.88 -76.42,-15.88l-20.84 0c-6.62,0.66 -10.59,2.31 -11.91,4.96 -0.67,0.66 -1,2.31 -1,4.96l0 278.9c0,10.58 2.65,19.52 7.94,26.79 8.6,11.25 19.85,18.86 33.75,22.83l0.99 0.99c-1.32,1.33 -5.95,1.99 -13.89,1.99 -48.97,-1.99 -86.68,-1.99 -113.15,0 -5.29,0 -8.93,-0.99 -10.92,-2.98 12.57,-0.66 23.33,-5.13 32.26,-13.4 8.93,-8.27 13.73,-18.03 14.39,-29.28l0 -285.84c0,-3.97 -1.99,-6.95 -5.96,-8.93l-29.77 0c-36.39,0 -61.87,5.29 -76.42,15.88 -11.25,8.6 -25.48,25.47 -42.68,50.62l-2.98 0c0,-12.57 0,-26.3 0,-41.19 0,-14.89 -0.33,-31.27 -0.99,-49.13l155.82 0.99 208.43 -1.98zm173.69 -1c-9.93,1.33 -18.2,4.64 -24.82,9.93 -6.61,5.29 -12.57,12.24 -17.86,20.84l0 284.85c0,10.59 2.65,19.52 7.94,26.8 8.6,11.25 19.85,18.86 33.74,22.83l1 0.99c-1.33,1.32 -5.96,1.98 -13.9,1.98 -48.96,-1.98 -86.68,-1.98 -113.14,0 -5.96,0 -9.93,-0.99 -11.91,-2.97 13.23,-0.66 24.15,-5.13 32.75,-13.4 8.6,-8.27 13.56,-18.03 14.89,-29.28l0 -274.93c0,-6.61 -1.66,-13.23 -4.97,-19.85 -3.3,-7.27 -7.44,-13.73 -12.4,-19.35 -4.96,-5.62 -10.42,-8.44 -16.38,-8.44 1.99,-0.66 23.16,-0.99 63.52,-0.99 40.36,0 60.88,0.33 61.54,0.99zm450.6 194.54c0,54.25 -19.85,99.58 -59.55,135.97 -38.38,36.39 -85.03,54.59 -139.95,54.59 -57.56,0 -104.87,-17.21 -141.93,-51.61 -39.04,-35.07 -58.56,-80.73 -58.56,-136.97 0,-54.26 19.86,-99.91 59.56,-136.97 38.37,-36.39 85.35,-54.58 140.93,-54.58 56.91,0 104.22,17.86 141.93,53.59 38.38,35.73 57.57,81.06 57.57,135.98zm-56.58 9.92c0,-53.59 -14.88,-95.94 -44.66,-127.04 -27.79,-30.44 -64.84,-45.66 -111.16,-45.66 -19.19,0 -36.72,3.81 -52.6,11.42 -15.88,7.61 -29.61,18.03 -41.19,31.26 -11.58,13.24 -20.68,29.45 -27.3,48.64 -6.61,19.18 -9.92,40.03 -9.92,62.52 0,54.92 14.22,97.93 42.68,129.03 27.79,29.77 65.5,44.66 113.14,44.66 38.38,0 69.81,-14.22 94.29,-42.68 24.48,-28.45 36.72,-65.83 36.72,-112.15zm514.12 -205.45c-20.51,3.97 -30.77,20.84 -30.77,50.62l1 201.48c0,21.17 0.16,40.03 0.49,56.57 0.33,16.54 0.83,31.43 1.49,44.66 0,6.62 -1.32,11.25 -3.97,13.9l-5.95 0c-17.21,-17.2 -49.63,-48.47 -97.27,-93.79 -47.64,-45.33 -110.83,-104.71 -189.57,-178.16l-0.99 172.7 0 42.68c0,30.43 10.26,47.31 30.77,50.61l0 1 -94.29 0 0 -1c21.17,-3.3 31.76,-20.18 31.76,-50.61l0 -49.63 1.98 -208.43c0,-12.57 0,-23.32 0,-32.25 0,-8.93 -0.33,-16.38 -0.99,-22.33l0.99 0 283.86 259.04c3.31,3.31 5.63,4.96 6.95,4.96 1.32,0 1.98,-2.31 1.98,-6.94l0 -204.46c0,-29.78 -10.58,-46.65 -31.76,-50.62l94.29 0zm275.92 212.4c16.54,16.54 25.47,35.73 26.8,57.56 0.66,6.62 0.16,14.56 -1.49,23.82 -1.66,9.27 -5.13,17.87 -10.42,25.81 -5.3,8.6 -11.58,16.54 -18.86,23.82 -7.28,7.28 -13.56,11.91 -18.86,13.89 -23.16,13.24 -52.93,18.2 -89.32,14.89 -45.66,-3.97 -74.77,-12.9 -87.34,-26.8l0 -72.45c0.66,0.66 0.99,1.16 0.99,1.49 0,0.33 0.33,0.83 0.99,1.49 13.23,23.16 27.79,40.69 43.67,52.6 15.22,11.25 33.08,17.87 53.6,19.85 38.37,3.31 63.19,-5.62 74.43,-26.8 0,-1.32 1,-3.63 2.98,-6.94 1.33,-4.63 2.65,-11.58 3.97,-20.85 0.66,-16.54 -4.3,-30.76 -14.89,-42.67 -11.91,-12.58 -33.74,-29.12 -65.5,-49.63 -42.35,-27.13 -69.81,-47.97 -82.38,-62.53 -15.88,-17.86 -22.83,-39.04 -20.84,-63.52 1.32,-25.8 13.23,-46.65 35.73,-62.53 22.5,-15.88 50.62,-22.49 84.36,-19.85 22.5,1.99 43.67,6.62 63.52,13.9 17.87,7.28 26.14,13.89 24.81,19.85 0,1.32 0,7.44 0,18.36 0,10.92 0.34,25.97 1,45.16 2.64,5.29 -1.33,0 -11.91,-15.88 -8.6,-14.56 -20.18,-27.46 -34.74,-38.71 -12.57,-9.92 -30.11,-15.88 -52.6,-17.86 -19.19,-1.33 -34.74,1.98 -46.65,9.92 -11.91,7.94 -18.2,20.18 -18.86,36.72 -1.32,16.55 3.31,30.44 13.9,41.69 9.26,11.25 28.12,25.47 56.57,42.68 21.17,12.57 39.04,24.15 53.59,34.74 14.56,10.58 25.81,20.18 33.75,28.78zm-3441.38 -3311.4l-194.05 -332.7 326.25 0 -132.2 332.7zm13.05 43.87l316.66 -93.87 -505.49 569.09 188.83 -475.22zm-463.5 0l188.83 475.22 -505.49 -569.09 316.66 93.87zm432.01 2.55l-200.27 503.97 -200.25 -503.97 400.52 0zm-396.72 -28.33l196.45 -336.85 196.46 336.85 -392.91 0zm763.95 -103.31l-322.43 95.59 130.97 -329.62 191.46 234.03zm-943.54 -234.03l130.98 329.62 -322.42 -95.59 191.44 -234.03zm981.66 244.54l0.38 -1.99c0.09,-1.25 -0.08,-2.48 -0.34,-3.74l-0.1 -1.28 -0.12 -0.22c-0.42,-1.33 -1.15,-2.54 -1.97,-3.72l-0.66 -1.13 -220.08 -269.03 -2.87 -2.26 -1.76 -1.37c-1.95,-0.99 -4.08,-1.57 -6.33,-1.57l-743.53 0c-2.24,0 -4.37,0.58 -6.33,1.57l-1.74 1.37 -2.87 2.26 -220.11 269.06 -0.55 0.92c-0.88,1.22 -1.63,2.51 -2.06,3.9l-0.11 0.22 -0.12 1.28c-0.25,1.26 -0.42,2.49 -0.33,3.74l0.38 1.99c0.23,1.02 0.49,2 0.94,2.96l1.18 1.94 0.93 1.53 591.97 666.44 1.89 1.4 1.62 1.18c2.17,1.28 4.52,2.18 7.07,2.18 2.56,0 4.92,-0.9 7.09,-2.18l1.61 -1.18 1.91 -1.4 591.96 -666.44 0.93 -1.53 1.18 -1.94c0.45,-0.96 0.71,-1.94 0.94,-2.96z"/>
 </g>
</svg>
